<svg xmlns="http://www.w3.org/2000/svg" viewBox="0 0 170 14.7"><path d="M3.1 6.5h1.1c1.9 0 3.5-.2 3.5-2.2 0-1.6-1.4-2-2.5-2h-2v4.2zm0 6.3h1.4c1.7 0 3.3-.4 3.3-2.2 0-2.1-1.8-2.4-3.5-2.4H3.1v4.6zM1.1.7h3.6c2.8 0 4.7.9 4.7 3.4.1 1.9-1 2.9-2.7 3.3 1.8.2 3.1 1.4 3.1 3.3 0 2.9-2.4 3.6-5.1 3.6H1.1V.7zM18.6 2.5l-2.7 6.8h5.4l-2.7-6.8zM17.7.7h2l5.7 13.7h-2.1L21.9 11h-6.6l-1.4 3.4h-2L17.7.7zM28.3.7H31l5.9 11V.7h1.9v13.7h-2.5l-6-11.3v11.2h-1.9L28.3.7zM53.5 3.1c-.9-.6-2-.9-3.7-.9-3.1 0-5.2 2.3-5.2 5.3 0 3.2 2.3 5.3 5.1 5.3 1.3 0 1.7-.1 2.2-.2V8.5H49V6.9h4.8V14c-.7.3-2 .6-4.1.6-4.3 0-7.1-2.8-7.1-7.1 0-4.2 3-7 7.1-7 2 0 2.8.3 4 .7l-.2 1.9zM87.5 12.9c3.1 0 4.4-2.6 4.4-5.3 0-2.8-1.5-5.4-4.4-5.3-3 0-4.4 2.6-4.4 5.3 0 2.7 1.3 5.3 4.4 5.3m0-12.4c4.1 0 6.5 3 6.5 7.1 0 4.2-2.4 7.1-6.5 7.1s-6.5-3-6.5-7.2c0-4 2.4-7 6.5-7M97.8.7h1.9v11.9h5.6v1.7h-7.6V.7zM118.4 8.7c0 3.8-1.9 5.9-5.2 5.9-3.3 0-5.2-2.1-5.2-5.9v-8h1.9v7.8c0 2.6.8 4.4 3.3 4.4s3.3-1.8 3.3-4.4V.7h1.9v8zM123.1.7h7.2v1.7H125v4h5v1.7h-5v6.2h-1.9V.7zM141 2.8c-1-.4-1.5-.6-2.5-.6-1.1 0-2.4.4-2.4 1.8 0 2.6 5.8 2 5.8 6.5 0 2.9-2.2 4.1-4.9 4.1-.9 0-1.9-.3-2.8-.6l.2-1.8c.7.3 1.8.7 2.8.7 1.1 0 2.6-.6 2.6-2.2 0-3.1-5.8-2.2-5.8-6.5 0-2.4 1.9-3.7 4.3-3.7.9 0 2 .2 2.9.5l-.2 1.8zM146.3.7h7.6v1.7h-5.6v4h5.1v1.7h-5.1v4.5h5.6v1.7h-7.6V.7zM158.3.7h2.6l5.9 11V.7h1.9v13.7h-2.5l-6.1-11.2v11.2h-1.9V.7zM72.5 10.9l1.4-1.4-1.4-1.4-1.4 1.4s-3.8-3.9-4.5-4.6c0-.1-.4-.4-.4-1 0-.9.8-1.5 1.4-1.5.5 0 .9.3 1 .4L70 1.4c-.1-.1-.9-1-2.4-1-2 0-3.4 1.7-3.4 3.4s1.2 2.6 1.4 2.8c-.2.4-.7.9-1.1 1.4-1.1 1.1-1.8 3.7 0 5.5 1.8 1.8 4.3 1.2 5.4 0l1.2-1.2 1.9 1.9 1.3-1.4-1.8-1.9zm-4 1.2c-.7.7-1.9.9-2.7 0s-.7-2.1 0-2.8L67 8.1l2.7 2.7c.1.1-.5.7-1.2 1.3z"/><path d="M1.2.1h11.1v14.2H1.2V.1z" fill="none"/></svg>
